<svg xmlns="http://www.w3.org/2000/svg" viewBox="0 0 320 200" fill="none" stroke="#0e1014" stroke-width="1.5" stroke-linecap="round" stroke-linejoin="round"><style>@keyframes led{50%{opacity:.25}}@keyframes bar{0%{transform:scaleX(.2)}100%{transform:scaleX(1)}}@keyframes sheet{0%{transform:translateY(-3px)}100%{transform:translateY(2px)}}.led{animation:led 2s 3}.progress{transform-box:fill-box;transform-origin:left;animation:bar 2.4s 2}.sheet{animation:sheet 2s 2 alternate}@media(prefers-reduced-motion:reduce){*{animation:none!important}}</style><path d="M36 172h248" stroke="#d3d5dd"/><path d="M104 50l10-14h92l10 14" fill="#eceef3"/><path class="sheet" d="M128 38l5-12h56l-2 12" fill="#fff"/><path d="M138 30h34M136 34h24" stroke="#b9bbc6" stroke-width="1.2"/><rect x="72" y="66" width="176" height="98" rx="9" fill="#fff"/><rect x="84" y="50" width="152" height="18" rx="5" fill="#fff"/><rect x="86" y="74" width="112" height="20" rx="3" fill="#eceef3"/><path d="M100 94V81h78v13" fill="#fff"/><path d="M108 86h42M108 90h28" stroke="#b9bbc6" stroke-width="1.2"/><rect x="206" y="74" width="30" height="20" rx="3" fill="#eceef3"/><rect x="210" y="78" width="12" height="12" rx="1.5" fill="#fff"/><circle class="led" cx="229" cy="84" r="3" fill="#ff5900" stroke="none"/><path d="M72 104h176" stroke="#d3d5dd"/><rect x="86" y="114" width="148" height="38" rx="5" fill="#eceef3"/><rect x="140" y="129" width="40" height="7" rx="3.5" fill="#fff"/><path d="M92 164v5M228 164v5" stroke-width="3"/></svg>
