<svg xmlns="http://www.w3.org/2000/svg" viewBox="0 0 320 200" fill="none" stroke="#0e1014" stroke-width="1.5" stroke-linecap="round" stroke-linejoin="round"><style>@keyframes led{50%{opacity:.25}}@keyframes bar{0%{transform:scaleX(.2)}100%{transform:scaleX(1)}}@keyframes sheet{0%{transform:translateY(-3px)}100%{transform:translateY(2px)}}.led{animation:led 2s 3}.progress{transform-box:fill-box;transform-origin:left;animation:bar 2.4s 2}.sheet{animation:sheet 2s 2 alternate}@media(prefers-reduced-motion:reduce){*{animation:none!important}}</style><path d="M36 172h248" stroke="#d3d5dd"/><rect x="84" y="38" width="152" height="106" rx="8" fill="#fff"/><rect x="92" y="46" width="136" height="90" rx="3" fill="#eceef3"/><rect x="106" y="58" width="108" height="66" rx="4" fill="#fff" stroke-width="1.2"/><path d="M106 68h108" stroke="#d3d5dd" stroke-width="1.2"/><g fill="#b9bbc6" stroke="none"><circle cx="113" cy="63" r="1.6"/><circle cx="119" cy="63" r="1.6"/><circle cx="125" cy="63" r="1.6"/></g><path d="M116 81h58M116 88h38" stroke="#b9bbc6" stroke-width="1.2"/><rect x="116" y="104" width="88" height="6" rx="3" fill="#eceef3" stroke="none"/><rect class="progress" x="116" y="104" width="58" height="6" rx="3" fill="#ff5900" stroke="none"/><path d="M62 144h196l8 12a4 4 0 0 1-3.5 6H57.5a4 4 0 0 1-3.5-6Z" fill="#fff"/><path d="M142 144v2a2 2 0 0 0 2 2h32a2 2 0 0 0 2-2v-2" fill="#eceef3"/></svg>
