<svg xmlns="http://www.w3.org/2000/svg" viewBox="0 0 320 200" fill="none" stroke="#0e1014" stroke-width="1.5" stroke-linecap="round" stroke-linejoin="round"><path d="M40 182h240" stroke="#d3d5dd"/><path d="M112 44l8-12h80l8 12" fill="#eceef3"/><path d="M134 34l4-10h44l-2 10" fill="#fff"/><path d="M104 88H84l-8 12h28" fill="#eceef3"/><path d="M88 88l3-6h13" fill="#fff"/><rect x="104" y="58" width="112" height="116" rx="6" fill="#fff"/><rect x="100" y="42" width="120" height="18" rx="4" fill="#fff"/><path d="M216 50h24a3 3 0 0 1 3 3v10a3 3 0 0 1-3 3h-24" fill="#eceef3"/><rect x="220" y="54" width="12" height="9" rx="1.5" fill="#fff"/><circle cx="237.5" cy="58.5" r="2.4" fill="#ff5900" stroke="none"/><path d="M104 74h112" stroke="#d3d5dd"/><rect x="114" y="82" width="92" height="22" rx="3" fill="#eceef3"/><rect x="146" y="90" width="28" height="6" rx="3" fill="#fff"/><rect x="114" y="110" width="92" height="22" rx="3" fill="#eceef3"/><rect x="146" y="118" width="28" height="6" rx="3" fill="#fff"/><rect x="114" y="138" width="92" height="22" rx="3" fill="#eceef3"/><rect x="146" y="146" width="28" height="6" rx="3" fill="#fff"/><circle cx="114" cy="177" r="3" fill="#0e1014" stroke="none"/><circle cx="206" cy="177" r="3" fill="#0e1014" stroke="none"/></svg>
