<svg xmlns="http://www.w3.org/2000/svg" viewBox="0 0 320 200" fill="none" stroke="#0e1014" stroke-width="1.5" stroke-linecap="round" stroke-linejoin="round"><path d="M28 172h264" stroke="#d3d5dd"/><path d="M98 146c8 0 8-14 16-14M206 132c8 0 8 14 16 14" stroke="#b9bbc6" stroke-dasharray="3 4"/><path d="M128 120l-7-36M192 120l7-36" stroke-width="3"/><rect x="112" y="118" width="96" height="30" rx="7" fill="#fff"/><g fill="#b9bbc6" stroke="none"><circle cx="128" cy="133" r="2.2"/><circle cx="137" cy="133" r="2.2"/><circle cx="146" cy="133" r="2.2"/></g><path d="M186 133h12" stroke="#d3d5dd"/><path d="M136.7 69.8a35.2 35.2 0 0 1 46.6 0M144.6 77.6a24.2 24.2 0 0 1 31 0M152.4 85.4a13.2 13.2 0 0 1 15.3 0" stroke="#0e1014"/><circle cx="160" cy="95" r="3" fill="#ff5900" stroke="none"/><rect x="46" y="124" width="46" height="31" rx="3" fill="#fff"/><rect x="50" y="128" width="38" height="23" rx="1.5" fill="#eceef3"/><path d="M40 155h58l-3 6H43Z" fill="#fff"/><rect x="236" y="120" width="36" height="12" rx="2" fill="#eceef3"/><rect x="226" y="130" width="56" height="30" rx="4" fill="#fff"/><rect x="236" y="138" width="36" height="4" rx="2" fill="#0e1014" stroke="none"/></svg>
